<?xml version="1.0" encoding="utf-8"?>
<!-- Svg Vector Icons : http://www.onlinewebfonts.com/icon -->
<!DOCTYPE svg PUBLIC "-//W3C//DTD SVG 1.1//EN" "http://www.w3.org/Graphics/SVG/1.1/DTD/svg11.dtd">
<svg version="1.1" xmlns="http://www.w3.org/2000/svg" xmlns:xlink="http://www.w3.org/1999/xlink" x="0px" y="0px" viewBox="0 0 1000 1000" enable-background="new 0 0 1000 1000" xml:space="preserve">
<metadata> Svg Vector Icons : http://www.onlinewebfonts.com/icon </metadata>
<g><path d="M299.5,387.8c7.7,22.8,19.3,42.8,32.5,61.7c16.9,24.3,34.3,48.3,52.5,71.6c11.7,15,24.9,28.8,37.9,42.7c22.5,24.2,47.5,45.6,74.1,65.1c23.8,17.3,47.7,34.5,72.3,50.5c13.2,8.6,27.3,16.3,44.2,20.5c6.8-14.6,13.6-29.3,20.3-44.1c9.1-20,18-40.1,34.9-55c12.6-11.1,27.2-16.6,44.4-14.8c24.2,2.5,45.2,13.6,66,24.8c21.1,11.4,41.9,23.6,62,36.8c23.3,15.3,46.5,31.1,68.3,48.4c19.6,15.6,37.7,33.1,55.4,50.7c10.2,10.1,18.4,22.4,23.1,36.3c5.5,16.4,1.7,32.1-5.4,47.2c-7.1,14.9-17.2,27.7-28.4,39.7c-9.7,10.4-19.2,21.2-30.2,30c-19.3,15.5-39.2,30.6-60,44c-24.6,15.9-50.9,28.5-79.1,37.1c-20.8,6.3-42,10.2-63.7,8.7c-18.6-1.3-36.9-5.4-54.8-11c-32.1-10.1-62.5-23.9-92.1-39.7c-35.3-18.8-69.1-40.1-101.5-63.5c-23.3-16.8-46.3-34-68.7-51.8c-20.5-16.3-40.7-33.1-59.9-50.9c-30.3-28-59.9-56.9-89.3-85.8c-12-11.8-23-24.5-34-37.3c-13.2-15.3-25.9-31.1-38.9-46.7c-28.7-34.3-55-70.3-79.2-107.8c-15.2-23.4-28.9-47.8-42.7-72.1c-16.1-28.6-28.9-58.7-38.7-90c-5.4-17.3-9.1-35-10.4-53.2c-2.2-31.4,5.5-60.5,17.2-89c11.4-27.9,26.2-53.9,43.9-78.2c9.7-13.3,20.2-26.1,30.9-38.7c7.5-8.8,15.5-17.4,24.1-25.2c15.3-13.8,31.2-26.8,50.8-34.4c20.6-8,39.5-4.9,57.5,7.1c17.6,11.7,31.8,27,46,42.5c26.4,28.8,49.1,60.5,70.2,93.1c12.3,19.1,23.5,38.9,35,58.5c10.3,17.4,18.6,35.8,24.4,55.2c6.6,21.8,4.4,41.9-11.2,59.9c-8.5,9.8-18.4,17.2-29.7,22.8c-20.4,10.1-41,19.6-61.6,29.4C305.1,384.2,302.5,386,299.5,387.8z M614.6,760.3c-7.6-1.6-15.4-2.5-22.7-4.9c-26.1-8.4-49.5-22.3-72.4-37.1c-29.6-19.2-58-39.9-84.6-63c-15.3-13.3-31.3-26-45.6-40.4c-15.9-16-30.4-33.4-45.1-50.5c-10.5-12.2-21.2-24.5-30.4-37.7c-16.2-23-32-46.2-46.6-70.1c-12.1-19.7-22.5-40.3-26.2-63.7c-2.9-18.5,3.2-33.5,15.8-45.9c12.3-12.1,28.3-18.7,43.7-26.1c16.6-8,33.1-16.4,49.6-24.6c5-2.5,5.6-6.2,3.5-10.9c-5.5-12.3-9.9-25.2-16.4-36.9c-11.5-20.7-23.3-41.3-36.6-60.8c-16-23.6-33.5-46.1-50.6-68.9c-12.1-16.2-26.2-30.7-41.5-43.9c-7.3-6.3-10.8-6.9-18.7-1.4c-7.4,5.2-15.1,10.4-21.4,16.8c-12.9,13-25.7,26.2-37.1,40.5c-21.1,26.6-39,55.4-51.3,87.2c-7,18.3-13.3,37.1-10.6,57c2.2,15.7,4.2,31.8,9.6,46.5c8.9,24.2,19.7,47.8,31.2,70.9c15.5,31.4,34.3,60.9,54.3,89.6c12.4,17.7,24.7,35.6,38,52.6c16.9,21.7,34.5,42.8,52.3,63.7c15.6,18.3,31.3,36.7,48.3,53.7c25.9,26.1,52.7,51.3,79.6,76.4c16.2,15.1,33,29.6,50.3,43.5c19.6,15.8,40,30.6,60.1,45.7c36.2,27.1,74.4,51.1,114.3,72.3c25.8,13.7,52.3,26.1,80.8,33.5c13.4,3.5,27,6.5,40.8,7.5c15.2,1,30.2-3.1,44.5-8.2c23.8-8.4,46.3-19.8,67-34.2c14.3-9.9,28-20.7,41.7-31.5c17.4-13.9,32.6-30,45-48.5c3.2-4.9,4.9-9.7-0.4-14.7c-3.3-3.2-5.5-7.5-8.9-10.7c-10.3-9.9-20.3-20-31.3-29c-17.1-13.9-34.4-27.6-52.4-40.2c-19.1-13.4-38.7-26.1-58.7-37.9c-19.7-11.7-39.8-22.8-61.8-30.1c-4.7-1.6-7.9-0.7-10,3.1c-5.5,9.8-11.1,19.7-15.9,29.9c-9.1,19.2-16,39.4-29,56.7C647.6,750.4,633.7,759.4,614.6,760.3z"/></g>
</svg>